<svg width="18" height="10" viewBox="0 0 18 10" fill="none" xmlns="http://www.w3.org/2000/svg">
<path d="M4.18359 6.05469C4.48828 6.35938 4.83984 6.51172 5.23828 6.51172C5.63672 6.51172 5.98828 6.35938 6.29297 6.05469C6.59766 5.75 6.75 5.39844 6.75 5C6.75 4.60156 6.59766 4.25 6.29297 3.94531C5.98828 3.64062 5.63672 3.48828 5.23828 3.48828C4.83984 3.48828 4.48828 3.64062 4.18359 3.94531C3.90234 4.25 3.76172 4.60156 3.76172 5C3.76172 5.39844 3.90234 5.75 4.18359 6.05469ZM9.49219 3.48828H17.2617V6.51172H15.75V9.5H12.7617V6.51172H9.49219C9.1875 7.40234 8.64844 8.12891 7.875 8.69141C7.10156 9.23047 6.22266 9.5 5.23828 9.5C3.99609 9.5 2.92969 9.06641 2.03906 8.19922C1.17188 7.30859 0.738281 6.24219 0.738281 5C0.738281 3.75781 1.17188 2.70313 2.03906 1.83594C2.92969 0.945313 3.99609 0.5 5.23828 0.5C6.22266 0.5 7.10156 0.78125 7.875 1.34375C8.64844 1.88281 9.1875 2.59766 9.49219 3.48828Z" fill="white"/>
</svg>
